<svg xmlns="http://www.w3.org/2000/svg" xmlns:xlink="http://www.w3.org/1999/xlink" xmlns:xodm="http://www.corel.com/coreldraw/odm/2003" xml:space="preserve" version="1.1" style="shape-rendering:geometricPrecision;text-rendering:geometricPrecision;image-rendering:optimizeQuality;" viewBox="0 0 846.66 1058.325" x="0px" y="0px" fill-rule="evenodd" clip-rule="evenodd"><defs><style type="text/css">
   
    .fil0 {fill:black;fill-rule:nonzero}
   
  </style></defs><g><path class="fil0" d="M558.24 454.89c13.22,13.22 13.22,34.66 0,47.88 -13.22,13.22 -34.66,13.22 -47.88,0l-87.03 -87.04 -87.03 87.04c-13.22,13.22 -34.66,13.22 -47.88,0 -13.22,-13.22 -13.22,-34.66 0,-47.88l110.97 -110.98c13.22,-13.22 34.66,-13.22 47.88,0l110.97 110.98zm-168.77 -387.51c0,-18.7 15.17,-33.87 33.87,-33.87 18.7,0 33.87,15.17 33.87,33.87l0 25.47c78.2,7.92 148.39,42.98 201.01,95.6 52.63,52.63 87.68,122.82 95.6,201.02l25.46 0c18.7,0 33.87,15.17 33.87,33.87 0,18.7 -15.17,33.87 -33.87,33.87l-25.46 0c-7.92,78.2 -42.97,148.39 -95.6,201.02 -52.63,52.63 -122.83,87.68 -201.03,95.6l0 25.45c0,18.7 -15.17,33.87 -33.87,33.87 -18.7,0 -33.87,-15.17 -33.87,-33.87l0 -25.45c-78.2,-7.92 -148.39,-42.98 -201.01,-95.6 -52.63,-52.63 -87.68,-122.83 -95.6,-201.04l-25.46 0c-18.7,0 -33.87,-15.17 -33.87,-33.87 0,-18.7 15.17,-33.87 33.87,-33.87l25.46 0c7.92,-78.19 42.98,-148.38 95.6,-201 52.63,-52.63 122.83,-87.68 201.03,-95.6l0 -25.47zm67.74 93.66l0 30.13c0,18.7 -15.17,33.87 -33.87,33.87 -18.7,0 -33.87,-15.17 -33.87,-33.87l0 -30.14c-59.5,7.6 -112.82,34.97 -153.15,75.3 -40.32,40.32 -67.68,93.63 -75.29,153.12l30.14 0c18.7,0 33.87,15.17 33.87,33.87 0,18.7 -15.17,33.87 -33.87,33.87l-30.15 0c7.6,59.5 34.97,112.83 75.3,153.16 40.32,40.32 93.64,67.68 153.13,75.29l0 -30.15c0,-18.7 15.17,-33.87 33.87,-33.87 18.7,0 33.87,15.17 33.87,33.87l0 30.16c59.5,-7.6 112.82,-34.97 153.15,-75.3 40.32,-40.32 67.7,-93.64 75.3,-153.14l-30.15 0c-18.7,0 -33.87,-15.17 -33.87,-33.87 0,-18.7 15.17,-33.87 33.87,-33.87l30.15 0c-7.6,-59.5 -34.98,-112.82 -75.3,-153.14 -40.32,-40.32 -93.64,-67.68 -153.13,-75.29z"/></g><text x="0" y="861.66" fill="#000000" font-size="5px" font-weight="bold" font-family="'Helvetica Neue', Helvetica, Arial-Unicode, Arial, Sans-serif">Created by Hadi</text><text x="0" y="866.66" fill="#000000" font-size="5px" font-weight="bold" font-family="'Helvetica Neue', Helvetica, Arial-Unicode, Arial, Sans-serif">from the Noun Project</text></svg>